<svg width="82" height="44" viewBox="0 0 82 44" fill="none" xmlns="http://www.w3.org/2000/svg">
<path fill-rule="evenodd" clip-rule="evenodd" d="M16.6613 14L0.447256 27.6503L0 30H2.33599L14.8958 19.4315L12.8713 30H15.9351L19 14H16.6613Z" fill="#F3652B"/>
<path fill-rule="evenodd" clip-rule="evenodd" d="M22.0645 14L21.4854 17.0231H32.0678L19.4534 27.6444L19 30H34.9355L35.5146 26.9769H24.9323L37.5495 16.3533L38 14H22.0645Z" fill="#F3652B"/>
<path fill-rule="evenodd" clip-rule="evenodd" d="M41.0003 14L38 30H40.9997L44 14H41.0003Z" fill="#F3652B"/>
<path fill-rule="evenodd" clip-rule="evenodd" d="M47.0644 14L44 30H59.9356L63 14H47.0644ZM49.5536 17.0229H59.3487L57.4422 26.9769H47.6472L49.5536 17.0229Z" fill="#F3652B"/>
<path fill-rule="evenodd" clip-rule="evenodd" d="M78.9357 14L77.5761 21.0979L80.0511 24.1745L82 14H78.9357ZM66.0644 14L63 30H66.0656L68.1658 19.0314L77.0192 30H78.9355L79.314 28.0413L67.9806 14H66.0644Z" fill="#F3652B"/>
</svg>
