<svg width="16" height="12" viewBox="0 0 16 12" fill="none" xmlns="http://www.w3.org/2000/svg">
<path d="M9.47598e-05 9.27061L1.85746 8.14652C2.21585 8.78186 2.54181 9.31944 3.32373 9.31944C4.07321 9.31944 4.54585 9.02628 4.54585 7.88588V0.130461H6.82674V7.91812C6.82674 10.2805 5.44192 11.3559 3.42148 11.3559C1.59682 11.3559 0.537678 10.4109 0 9.27042M8.06565 9.02619L9.92282 7.95093C10.4118 8.74934 11.0472 9.33584 12.1713 9.33584C13.1165 9.33584 13.7191 8.8633 13.7191 8.21156C13.7191 7.42955 13.1 7.15251 12.0572 6.69647L11.4871 6.45185C9.84147 5.75148 8.74991 4.87163 8.74991 3.01426C8.74991 1.30347 10.0533 0 12.0899 0C13.54 0 14.5827 0.505157 15.3321 1.82484L13.5561 2.96543C13.165 2.26487 12.7416 1.98792 12.0898 1.98792C11.4218 1.98792 10.9982 2.41154 10.9982 2.96543C10.9982 3.64969 11.4218 3.92682 12.3993 4.35044L12.9695 4.59477C14.9084 5.4258 16 6.27294 16 8.17904C16 10.2321 14.387 11.3562 12.2201 11.3562C10.1021 11.3562 8.7335 10.3461 8.06555 9.02628" fill="black"/>
</svg>
