<svg width="40" height="40" viewBox="0 0 40 40" fill="none" xmlns="http://www.w3.org/2000/svg">
<path fill-rule="evenodd" clip-rule="evenodd" d="M20 9.19995C14.0353 9.19995 9.2 14.0353 9.2 19.9999C9.2 25.9646 14.0353 30.7999 20 30.7999C25.9647 30.7999 30.8 25.9646 30.8 19.9999C30.8 14.0353 25.9647 9.19995 20 9.19995ZM10.4 19.9999C10.4 14.698 14.6981 10.4 20 10.4C25.3019 10.4 29.6 14.698 29.6 19.9999C29.6 25.3019 25.3019 29.5999 20 29.5999C14.6981 29.5999 10.4 25.3019 10.4 19.9999Z" fill="white"/>
<path fill-rule="evenodd" clip-rule="evenodd" d="M18.3008 15.8353C18.2228 15.8691 18.1461 15.9023 18.0709 15.9344L17.6 14.8306C17.6654 14.8027 17.7361 14.7719 17.8114 14.7391C18.3648 14.4981 19.1661 14.1492 19.9507 14.0376C20.4078 13.9726 20.9079 13.9789 21.3833 14.1606C21.873 14.3478 22.2876 14.7027 22.5862 15.2454C22.984 15.9685 23.0544 16.6345 22.8802 17.2585C22.7161 17.8458 22.349 18.3378 22.0089 18.7518C21.9108 18.8712 21.8153 18.9839 21.7229 19.0931C21.4704 19.3912 21.2408 19.6623 21.0448 19.9668C20.7915 20.3604 20.6385 20.7503 20.6385 21.196V22.9075H19.4385V21.196C19.4385 20.448 19.7035 19.8336 20.0358 19.3173C20.2783 18.9405 20.5819 18.5823 20.8477 18.2688C20.9303 18.1714 21.0093 18.0782 21.0816 17.9901C21.4122 17.5876 21.6332 17.2621 21.7244 16.9357C21.8053 16.646 21.798 16.3021 21.5348 15.8238C21.3642 15.5137 21.1624 15.3608 20.9549 15.2815C20.7331 15.1967 20.4552 15.1779 20.1197 15.2256C19.5094 15.3124 18.8709 15.5887 18.3008 15.8353ZM19.047 25.0988C19.047 24.5189 19.5171 24.0488 20.097 24.0488C20.6769 24.0488 21.147 24.5189 21.147 25.0988C21.147 25.6787 20.6769 26.1488 20.097 26.1488C19.5171 26.1488 19.047 25.6787 19.047 25.0988Z" fill="white"/>
</svg>
