<svg width="24" height="24" viewBox="0 0 24 24" fill="none" xmlns="http://www.w3.org/2000/svg">
<path fill-rule="evenodd" clip-rule="evenodd" d="M9.52666 3.59995C6.23295 3.59995 3.56287 6.27003 3.56287 9.56373C3.56287 12.8574 6.23295 15.5275 9.52666 15.5275C11.1895 15.5275 12.6916 14.8485 13.7745 13.7497C14.8369 12.6718 15.4904 11.1953 15.4904 9.56373C15.4904 6.27003 12.8204 3.59995 9.52666 3.59995ZM1.16287 9.56373C1.16287 4.94454 4.90747 1.19995 9.52666 1.19995C14.1458 1.19995 17.8904 4.94454 17.8904 9.56373C17.8904 11.4209 17.2841 13.138 16.26 14.5258L22.4856 20.7514L20.7886 22.4485L14.5737 16.2336C13.1713 17.296 11.422 17.9275 9.52666 17.9275C4.90747 17.9275 1.16287 14.1829 1.16287 9.56373Z" fill="#666666"/>
</svg>
